/* XPM */
static char * dessert_1_xpm[] = {
"64 64 32 1",
" 	c #1A151F",
".	c #36274B",
"+	c #42343B",
"@	c #3C336A",
"#	c #264042",
"$	c #393B42",
"%	c #6A2F56",
"&	c #813836",
"*	c #474C80",
"=	c #7D413C",
"-	c #69469B",
";	c #B03B59",
">	c #3C7253",
",	c #72615F",
"'	c #B4563E",
")	c #A1624E",
"!	c #B158D3",
"~	c #6D767B",
"{	c #E06465",
"]	c #5590B4",
"^	c #C68B60",
"/	c #6BB453",
"(	c #E981E4",
"_	c #DD9254",
":	c #B4A091",
"<	c #F29380",
"[	c #B3BDB6",
"}	c #E5BD85",
"|	c #81D7CE",
"1	c #C1DC71",
"2	c #EAD074",
"3	c #F6F5DE",
"''''''''''''&'''&&&&'''&'&&&&'''&&&&&&'&''''''''''''&&&&&&&'&&''",
"'''''''''''''''''&&&''''&''''''&&&&==&&&&&&&&&''''''''&&''&'''''",
"&'''''''''''''''&'&&&'''&&'&&''&&&&&&+  +&&&&&&&&'&&&&&'&&&''&''",
"''&''&'''''''''''&&&&'&&&'''''&&&&&&&&&==   =&&&&&'''&'&'&&&'&&&",
"&&&&&&&&&&&&&&&&&&&&&&''&'&&&&&&&&&&&&&&&&&=+ +&&&&&&&&&&&&&&'&&",
"'&&&&&&&&&&&&&&&'&=&&&&&&&&&&&&&&&&&&&&&&&&&&&& =&&&&&&&&&&&&&&'",
"&&&&&&&&&&&&&&&&&'&&&&&&&&&&&&&&&&&&&&&&&&&&&&&&==&&&&&&&&&&&&&&",
"&&&&&&&&&&&&&&&&&'&&&&&&&&&&===&&&&&&&&&&&&&&&&&&&=&&&&&&&&&&&&&",
"&&&=+  +=&&&&&&&&&&&&&&&&&&&&==+&&&&&&&&&&'&&&&&&&&&&&&&&&&&&&&&",
"==&&&&==+= &&&&&&&&&&&&&&&&&&&=&&&&&&&&&&&&&&&&&&&&&+=&&&&&&&==+",
"&&&&&&&&&&&&==&&&&&&&&&&&&&&&&&&&&&&&&&&&&&&&&&&&&&&&&+ +=+++=&&",
"&&&&&&&&&&&&&&==&&&&&&&&&&&&&&&&&=&&&&&&&&&&&&&&&&&&&&&&&&&&&&&&",
"&&&&&&&&&&&&&&&&&&&&&&&&&&&&&&&&&&=++==&&&&&&&&&&&&&&&&&&&&&&&&&",
"&&&&&&&&&&&&&&&&&&&&&&&&&&&'''''&&&&&&&&&&&&&&&&&&&''''&'&&&&&&&",
"'&'&&&&&&&&&&&&&&&&&&&&&&&&''''''''&&&&&&&&&&&&&&&&&&&''''''''''",
"'''''''''&&&&&&&&&&&&&&&&&''''''&''''&&'&&&&&&&&&&&&&&&'''''''''",
"'''&&''''''&&&&&&&&&&&&&'&&'&&&'''''''&&&&&&&&&&&&&&&&'&&'''''''",
"''''&''''''&'&&&&&&&&&&&&&&&&'&'&'''''''&&&&&&&&&&&&&&&&&&'&''''",
"'&''&''''''''''&&&&&&&&&&&&&&&&&&&&&&'&&'&&&&&&&&&&&&&&&&&&&&&&&",
"&&&&&&'''''''''''&&&&&&&&&&&&&&&&&&&&&&&&&&&&&&&&&&&&&&&&&&&&&&&",
"&&&&&&&&&''''''''''&&&&&&&&&&&&&&&&&&&&&&&&&&&&&&&&&&=  =&&&&&&&",
"&&&&&&&&&&&''''''''''&&&&&&&&&&&&&&&&&&&&&&&&&&&&&&&&&&&=   ++&&",
"    +=&&&&&&&&''&'''''&&&&&&&&&&&&&&&&&&&&&&&&&&&&&&&&&&&&&&++  ",
"+=&&&====&&&&&&&&'''''''&&&&&&&&&&&&&&&&&&&&&&&&&&&&&&&&&&&&&&==",
"&&&&&&&&&=++&&&&&&&&'''''&&=+=&&&&&&&&&&&&&&&&=+===&&&&&&&&&&&&&",
"&&&&&&&===+    &&&&&&&&&'''&&&&&&&=+       ==&&&&&&&&&&&&&&&&&&&",
"&&&&&&&&&&&==    &&&&&&&&&''&&&&===&&&&=&&&&&&&&&&&&&&&&&&&&&&&&",
"&&&&&&&&&&&&&===      &&&&&&'&&&&&&&&&&&&&&&&&&&&&&&&&&&&&&&&&&&",
"&&&&&&&&&&&&&&&&&&==+      =&&&&&&&&&&&&&&&&&&&&&&&&&&&&&&&'''&&",
"'&&&&&&&&&&&&&&&&&&&&&&&&&&&&&&&&&&&&&&&&&&&&&&&&&&&&&&&&&&'''''",
"''&&&''''''&'&&&&&&&&&&&&&&&&&&&&&&&&&&&&&&&&&&&&&&'&&&&&&&'''''",
"&&&&&'&''''''''''&&&&&&&&&&&&&&&&&&&&&&&&&'''&&&'&&'''''''&'&'''",
"&&&&&&'&''''''''''''&&&&&&&'&&''''''''''''''&'''&&&&'''&'&&&&'''",
"&&&==&&&&&&&&&''''''''&&''&''''''''''''''''''''''&&&''''&''''''&",
"&&&&&+  +&&&&&&&&'&&&&&'&&&''&''&'''''''''''''''&'&&&'''&&'&&''&",
"&&&&&&&==   =&&&&&'''&'&'&&&'&&&''&''&'''''''''''&&&&'&&&'''''&&",
"&&&&&&&&&&&=+ +&&&&&&&&&&&&&&'&&&&&&&&&&&&&&&&&&&&&&&&''&'&&&&&&",
"&&&&&&&&&&&&&&& =&&&&&&&&&&&&&&''&&&&&&&&&&&&&&&'&=&&&&&&&&&&&&&",
"&&&&&&&&&&&&&&&&==&&&&&&&&&&&&&&&&&&&&&&&&&&&&&&&'&&&&&&&&&&&&&&",
"&&&&&&&&&&&&&&&&&&=&&&&&&&&&&&&&&&&&&&&&&&&&&&&&&'&&&&&&&&&&===&",
"&&&&&&&&&&'&&&&&&&&&&&&&&&&&&&&&&&&=+  +=&&&&&&&&&&&&&&&&&&&&==+",
"&&&&&&&&&&&&&&&&&&&&+=&&&&&&&==+==&&&&==+= &&&&&&&&&&&&&&&&&&&=&",
"&&&&&&&&&&&&&&&&&&&&&&+ +=+++=&&&&&&&&&&&&&&==&&&&&&&&&&&&&&&&&&",
"&=&&&&&&&&&&&&&&&&&&&&&&&&&&&&&&&&&&&&&&&&&&&&==&&&&&&&&&&&&&&&&",
"&&=++==&&&&&&&&&&&&&&&&&&&&&&&&&&&&&&&&&&&&&&&&&&&&&&&&&&&&&&&&&",
"&&&&&&&&&&&&&&&&&&&''''&'&&&&&&&&&&&&&&&&&&&&&&&&&&&&&&&&&&'''''",
"'''&&&&&&&&&&&&&&&&&&&'''''''''''&'&&&&&&&&&&&&&&&&&&&&&&&&'''''",
"&''''&&'&&&&&&&&&&&&&&&''''''''''''''''''&&&&&&&&&&&&&&&&&''''''",
"''''''&&&&&&&&&&&&&&&&'&&''''''''''&&''''''&&&&&&&&&&&&&'&&'&&&'",
"&'''''''&&&&&&&&&&&&&&&&&&'&''''''''&''''''&'&&&&&&&&&&&&&&&&'&'",
"&&&&&'&&'&&&&&&&&&&&&&&&&&&&&&&&'&''&''''''''''&&&&&&&&&&&&&&&&&",
"&&&&&&&&&&&&&&&&&&&&&&&&&&&&&&&&&&&&&&'''''''''''&&&&&&&&&&&&&&&",
"&&&&&&&&&&&&&&&&&&&&&=  =&&&&&&&&&&&&&&&&''''''''''&&&&&&&&&&&&&",
"&&&&&&&&&&&&&&&&&&&&&&&&=   ++&&&&&&&&&&&&&''''''''''&&&&&&&&&&&",
"&&&&&&&&&&&&&&&&&&&&&&&&&&&&++      +=&&&&&&&&''&'''''&&&&&&&&&&",
"&&&&&&&&&&&&&&&&&&&&&&&&&&&&&&==+=&&&====&&&&&&&&'''''''&&&&&&&&",
"&&&&&&&&&&&&&&=+===&&&&&&&&&&&&&&&&&&&&&&=++&&&&&&&&'''''&&=+=&&",
"&&=+       ==&&&&&&&&&&&&&&&&&&&&&&&&&&===+    &&&&&&&&&'''&&&&&",
"===&&&&=&&&&&&&&&&&&&&&&&&&&&&&&&&&&&&&&&&&==    &&&&&&&&&''&&&&",
"&&&&&&&&&&&&&&&&&&&&&&&&&&&&&&&&&&&&&&&&&&&&&===      &&&&&&'&&&",
"&&&&&&&&&&&&&&&&&&&&&&&&&&&'''&&&&&&&&&&&&&&&&&&&&==+      =&&&&",
"&&&&&&&&&&&&&&&&&&&&&&&&&&&''''''&&&&&&&&&&&&&&&&&&&&&&&&&&&&&&&",
"&&&&&&&&&&&&&&&&&&&'&&&&&&&'''''''&&&''''''&'&&&&&&&&&&&&&&&&&&&",
"&&&&&&&&&&'''&&&'&&'''''''&'&'''&&&&&'&''''''''''&&&&&&&&&&&&&&&"};
